<mxfile host="app.diagrams.net" agent="Mozilla/5.0 (Windows NT 10.0; Win64; x64) AppleWebKit/537.36 (KHTML, like Gecko) Chrome/131.0.0.0 Safari/537.36" version="24.7.16">
  <diagram name="Page-1" id="TtthxF8J5nE7acKYd6_m">
    <mxGraphModel dx="2150" dy="883" grid="0" gridSize="10" guides="1" tooltips="1" connect="1" arrows="1" fold="1" page="1" pageScale="1" pageWidth="827" pageHeight="1169" math="0" shadow="0">
      <root>
        <mxCell id="0" />
        <mxCell id="1" parent="0" />
        <mxCell id="hxMZ7VPCs5jYR-0BD7cE-5" style="edgeStyle=orthogonalEdgeStyle;rounded=0;orthogonalLoop=1;jettySize=auto;html=1;" edge="1" parent="1" source="hxMZ7VPCs5jYR-0BD7cE-2" target="hxMZ7VPCs5jYR-0BD7cE-4">
          <mxGeometry relative="1" as="geometry" />
        </mxCell>
        <mxCell id="hxMZ7VPCs5jYR-0BD7cE-2" value="Начало" style="strokeWidth=2;html=1;shape=mxgraph.flowchart.terminator;whiteSpace=wrap;" vertex="1" parent="1">
          <mxGeometry x="294" y="21" width="100" height="60" as="geometry" />
        </mxCell>
        <mxCell id="hxMZ7VPCs5jYR-0BD7cE-7" style="edgeStyle=orthogonalEdgeStyle;rounded=0;orthogonalLoop=1;jettySize=auto;html=1;entryX=0.5;entryY=0;entryDx=0;entryDy=0;" edge="1" parent="1" source="hxMZ7VPCs5jYR-0BD7cE-4" target="hxMZ7VPCs5jYR-0BD7cE-6">
          <mxGeometry relative="1" as="geometry" />
        </mxCell>
        <mxCell id="hxMZ7VPCs5jYR-0BD7cE-4" value="Создание окна с формой" style="shape=process;whiteSpace=wrap;html=1;backgroundOutline=1;" vertex="1" parent="1">
          <mxGeometry x="284" y="128" width="120" height="60" as="geometry" />
        </mxCell>
        <mxCell id="hxMZ7VPCs5jYR-0BD7cE-9" style="edgeStyle=orthogonalEdgeStyle;rounded=0;orthogonalLoop=1;jettySize=auto;html=1;" edge="1" parent="1" source="hxMZ7VPCs5jYR-0BD7cE-6" target="hxMZ7VPCs5jYR-0BD7cE-8">
          <mxGeometry relative="1" as="geometry" />
        </mxCell>
        <mxCell id="hxMZ7VPCs5jYR-0BD7cE-6" value="Заполнение данных" style="shape=process;whiteSpace=wrap;html=1;backgroundOutline=1;" vertex="1" parent="1">
          <mxGeometry x="284" y="232" width="120" height="60" as="geometry" />
        </mxCell>
        <mxCell id="hxMZ7VPCs5jYR-0BD7cE-8" value="Некорректный&lt;br&gt;ввод?" style="rhombus;whiteSpace=wrap;html=1;" vertex="1" parent="1">
          <mxGeometry x="293" y="336" width="102" height="80" as="geometry" />
        </mxCell>
        <mxCell id="hxMZ7VPCs5jYR-0BD7cE-29" style="edgeStyle=orthogonalEdgeStyle;rounded=0;orthogonalLoop=1;jettySize=auto;html=1;entryX=0.5;entryY=0;entryDx=0;entryDy=0;" edge="1" parent="1" source="hxMZ7VPCs5jYR-0BD7cE-14" target="hxMZ7VPCs5jYR-0BD7cE-18">
          <mxGeometry relative="1" as="geometry" />
        </mxCell>
        <mxCell id="hxMZ7VPCs5jYR-0BD7cE-14" value="Отправка запроса на сервер с добавлением нового проекта" style="shape=process;whiteSpace=wrap;html=1;backgroundOutline=1;" vertex="1" parent="1">
          <mxGeometry x="273.5" y="463" width="141" height="73" as="geometry" />
        </mxCell>
        <mxCell id="hxMZ7VPCs5jYR-0BD7cE-31" style="edgeStyle=orthogonalEdgeStyle;rounded=0;orthogonalLoop=1;jettySize=auto;html=1;" edge="1" parent="1" source="hxMZ7VPCs5jYR-0BD7cE-18" target="hxMZ7VPCs5jYR-0BD7cE-30">
          <mxGeometry relative="1" as="geometry" />
        </mxCell>
        <mxCell id="hxMZ7VPCs5jYR-0BD7cE-18" value="Отправка запроса на сервер с созданием новых задач для каждого пользователя" style="shape=process;whiteSpace=wrap;html=1;backgroundOutline=1;" vertex="1" parent="1">
          <mxGeometry x="273.5" y="571" width="141.5" height="80" as="geometry" />
        </mxCell>
        <mxCell id="hxMZ7VPCs5jYR-0BD7cE-19" value="" style="endArrow=none;html=1;rounded=0;entryX=0.5;entryY=1;entryDx=0;entryDy=0;exitX=0.5;exitY=0;exitDx=0;exitDy=0;" edge="1" parent="1" source="hxMZ7VPCs5jYR-0BD7cE-18" target="hxMZ7VPCs5jYR-0BD7cE-14">
          <mxGeometry width="50" height="50" relative="1" as="geometry">
            <mxPoint x="487" y="621" as="sourcePoint" />
            <mxPoint x="537" y="571" as="targetPoint" />
          </mxGeometry>
        </mxCell>
        <mxCell id="hxMZ7VPCs5jYR-0BD7cE-21" value="Создание модального окна с информацией о пропущенных полях" style="shape=process;whiteSpace=wrap;html=1;backgroundOutline=1;" vertex="1" parent="1">
          <mxGeometry x="102" y="178" width="137" height="82" as="geometry" />
        </mxCell>
        <mxCell id="hxMZ7VPCs5jYR-0BD7cE-23" value="" style="endArrow=classic;html=1;rounded=0;exitX=0;exitY=0.5;exitDx=0;exitDy=0;entryX=0.5;entryY=1;entryDx=0;entryDy=0;" edge="1" parent="1" source="hxMZ7VPCs5jYR-0BD7cE-8" target="hxMZ7VPCs5jYR-0BD7cE-21">
          <mxGeometry width="50" height="50" relative="1" as="geometry">
            <mxPoint x="142" y="443" as="sourcePoint" />
            <mxPoint x="41" y="348" as="targetPoint" />
            <Array as="points">
              <mxPoint x="171" y="376" />
            </Array>
          </mxGeometry>
        </mxCell>
        <mxCell id="hxMZ7VPCs5jYR-0BD7cE-28" value="Да" style="edgeLabel;html=1;align=center;verticalAlign=middle;resizable=0;points=[];" vertex="1" connectable="0" parent="hxMZ7VPCs5jYR-0BD7cE-23">
          <mxGeometry x="-0.6426" y="-5" relative="1" as="geometry">
            <mxPoint x="4" y="-7" as="offset" />
          </mxGeometry>
        </mxCell>
        <mxCell id="hxMZ7VPCs5jYR-0BD7cE-24" value="" style="endArrow=classic;html=1;rounded=0;exitX=0.5;exitY=0;exitDx=0;exitDy=0;" edge="1" parent="1" source="hxMZ7VPCs5jYR-0BD7cE-21">
          <mxGeometry width="50" height="50" relative="1" as="geometry">
            <mxPoint x="219" y="123" as="sourcePoint" />
            <mxPoint x="345" y="103" as="targetPoint" />
            <Array as="points">
              <mxPoint x="171" y="103" />
            </Array>
          </mxGeometry>
        </mxCell>
        <mxCell id="hxMZ7VPCs5jYR-0BD7cE-26" value="" style="endArrow=classic;html=1;rounded=0;exitX=0.5;exitY=1;exitDx=0;exitDy=0;entryX=0.5;entryY=0;entryDx=0;entryDy=0;" edge="1" parent="1" source="hxMZ7VPCs5jYR-0BD7cE-8" target="hxMZ7VPCs5jYR-0BD7cE-14">
          <mxGeometry width="50" height="50" relative="1" as="geometry">
            <mxPoint x="387" y="434" as="sourcePoint" />
            <mxPoint x="437" y="384" as="targetPoint" />
          </mxGeometry>
        </mxCell>
        <mxCell id="hxMZ7VPCs5jYR-0BD7cE-27" value="Нет" style="edgeLabel;html=1;align=center;verticalAlign=middle;resizable=0;points=[];" vertex="1" connectable="0" parent="hxMZ7VPCs5jYR-0BD7cE-26">
          <mxGeometry x="-0.2591" y="-3" relative="1" as="geometry">
            <mxPoint x="27" as="offset" />
          </mxGeometry>
        </mxCell>
        <mxCell id="hxMZ7VPCs5jYR-0BD7cE-30" value="Конец" style="strokeWidth=2;html=1;shape=mxgraph.flowchart.terminator;whiteSpace=wrap;" vertex="1" parent="1">
          <mxGeometry x="294.25" y="693" width="100" height="60" as="geometry" />
        </mxCell>
      </root>
    </mxGraphModel>
  </diagram>
</mxfile>
